<svg width="26" height="26" viewBox="0 0 26 26" fill="none" xmlns="http://www.w3.org/2000/svg">
<path d="M22.6667 12.6653H25.3334C25.3334 5.82529 20.1694 0.666626 13.3201 0.666626V3.33329C18.7361 3.33329 22.6667 7.25729 22.6667 12.6653Z" fill="#085A8A"/>
<path d="M13.3335 8.66666C16.1375 8.66666 17.3335 9.86266 17.3335 12.6667H20.0001C20.0001 8.36666 17.6335 5.99999 13.3335 5.99999V8.66666ZM17.8961 15.924C17.6399 15.6911 17.3033 15.5669 16.9572 15.5776C16.6112 15.5883 16.2828 15.7331 16.0415 15.9813L12.8508 19.2627C12.0828 19.116 10.5388 18.6347 8.94947 17.0493C7.36013 15.4587 6.8788 13.9107 6.73613 13.148L10.0148 9.95599C10.2633 9.71483 10.4083 9.38642 10.419 9.04027C10.4297 8.69412 10.3053 8.35738 10.0721 8.10133L5.14547 2.68399C4.91219 2.42714 4.58797 2.27133 4.24167 2.24967C3.89537 2.22801 3.55426 2.3422 3.2908 2.56799L0.397465 5.04933C0.166947 5.28068 0.0293579 5.58859 0.0107985 5.91466C-0.00920152 6.24799 -0.390535 14.144 5.73213 20.2693C11.0735 25.6093 17.7641 26 19.6068 26C19.8761 26 20.0415 25.992 20.0855 25.9893C20.4115 25.9711 20.7192 25.8329 20.9495 25.6013L23.4295 22.7067C23.6554 22.4434 23.7698 22.1024 23.7484 21.7561C23.727 21.4098 23.5715 21.0855 23.3148 20.852L17.8961 15.924Z" fill="#085A8A"/>
</svg>
